===========Visit DUSTorrents.com for more Exclusives==============

Visit DusTorrents.com for more exclusives....a Complete FreeLeech Site!! And Registrations are absolutely FREE!!

Register by visiting..... [url]http://www.dustorrents.com/register.php[/url]

========================================================



[center]
[img]http://i1139.photobucket.com/albums/n555/snaink/DUS/TeamDusPresents.gif[/img]


[SIZE="5"][COLOR="Green"][b]A Flat (2010)[/SIZE]
[SIZE="3"]
************************************************************ 
A Flat (2010) - 1 CD Dvdrip - x264 - snaink - DUS
************************************************************ 
[/b][/COLOR][/size]

[IMG]http://i1122.photobucket.com/albums/l535/snaink-movies/AFlat2010snaink23-31-20.jpg[/IMG]


[img]http://img293.imageshack.us/img293/8646/dusinfo.png[/img]


[code]
Ripper                           : [color=green]snaink[/color]
Source                           : [color=green]DVD9 @ ictv[/color]

[b]General[/b]

Format                           : Matroska
File size                        : 699 MiB
Duration                         : 1h 36mn
Overall bit rate                 : 1 012 Kbps
Encoded date                     : UTC 2010-12-08 06:11:08

[b]Video[/b]
Format                           : AVC
Format/Info                      : Advanced Video Codec
Format profile                   : High@L3.0
Format settings, CABAC           : Yes
Format settings, ReFrames        : 4 frames
Muxing mode                      : Container profile=Unknown@3.0
Codec ID                         : V_MPEG4/ISO/AVC
Duration                         : 1h 36mn
Bit rate                         : 562 Kbps
Width                            : 688 pixels
Height                           : 288 pixels
Display aspect ratio             : 2.35:1
Frame rate                       : 29.970 fps
Color space                      : YUV
Chroma subsampling               : 4:2:0
Bit depth                        : 8 bits
Scan type                        : Progressive
Bits/(Pixel*Frame)               : 0.095
Stream size                      : 376 MiB (54%)
Writing library                  : x264 core 98 r1649 c54c47d

[b]Audio[/b]
Format                           : AC-3
Format/Info                      : Audio Coding 3
Mode extension                   : CM (complete main)
Codec ID                         : A_AC3
Duration                         : 1h 36mn
Bit rate mode                    : Constant
Bit rate                         : 448 Kbps
Channel(s)                       : 6 channels
Channel positions                : Front: L C R, Side: L R, LFE
Sampling rate                    : 48.0 KHz
Stream size                      : 310 MiB (44%)

[/code]

[center]
[size="3"]

[b]Subtitles:[/b] None

[b]Cast:[/b]
Jimmy Shergill
Sanjay Suri
Hazel Croney
Sachin Khedekar
Kaveri Jha

[b]imdb Link:[/b] [url=http://www.imdb.com/title/tt0988655/]A Flat (2010) - IMDb[/url]
[/SIZE]

[img]http://img293.imageshack.us/img293/1407/dusscreenshots.png[/img]


[IMG]http://i1122.photobucket.com/albums/l535/snaink-movies/AFlat/AFlat2010snaink23-32-46.jpg[/IMG]
[IMG]http://i1122.photobucket.com/albums/l535/snaink-movies/AFlat/AFlat2010snaink23-19-42.jpg[/IMG]
[IMG]http://i1122.photobucket.com/albums/l535/snaink-movies/AFlat/AFlat2010snaink23-19-35.jpg[/IMG]
[IMG]http://i1122.photobucket.com/albums/l535/snaink-movies/AFlat/AFlat2010snaink23-30-01.jpg[/IMG]
[IMG]http://i1122.photobucket.com/albums/l535/snaink-movies/AFlat/AFlat2010snaink23-29-52.jpg[/IMG]
[IMG]http://i1122.photobucket.com/albums/l535/snaink-movies/AFlat/AFlat2010snaink23-35-44.jpg[/IMG]
[IMG]http://i1122.photobucket.com/albums/l535/snaink-movies/AFlat/AFlat2010snaink23-32-58.jpg[/IMG]


[center]
[img]http://i1139.photobucket.com/albums/n555/snaink/DUS/dus.gif[/img]

[COLOR="#008000"][B][SIZE="4"]snaink [DUS][/SIZE][/B][/COLOR]
[/center]
[/center]
[/center]


===========Visit DUSTorrents.com for more Exclusives==============

Visit DusTorrents.com for more exclusives....a Complete FreeLeech Site!! And Registrations are absolutely FREE!!

Register by visiting..... [url]http://www.dustorrents.com/register.php[/url]

========================================================